<svg width="166" height="46" viewBox="0 0 166 46" fill="none" xmlns="http://www.w3.org/2000/svg">
<path d="M54.4874 20.0494V36.3158H49.4893V15.8504H54.2034L54.4874 20.0494ZM53.749 25.3454H52.2155C52.2155 23.9205 52.3859 22.6091 52.7266 21.4112C53.0801 20.2133 53.5976 19.1729 54.2791 18.2904C54.9607 17.395 55.8 16.7015 56.7971 16.2097C57.8068 15.718 58.9744 15.472 60.2996 15.472C61.221 15.472 62.0667 15.6107 62.8366 15.8882C63.6065 16.153 64.2692 16.5754 64.8245 17.1555C65.3925 17.7229 65.8279 18.4668 66.1308 19.3873C66.4337 20.2952 66.5852 21.386 66.5852 22.6596V36.3158H61.587V23.1702C61.587 22.212 61.4482 21.4617 61.1706 20.9194C60.9055 20.3772 60.5205 19.9989 60.0156 19.7846C59.5108 19.5575 58.905 19.4441 58.1981 19.4441C57.4156 19.4441 56.7403 19.6017 56.1724 19.9169C55.617 20.2196 55.1563 20.642 54.7904 21.1842C54.4369 21.7264 54.1718 22.3506 53.9951 23.0568C53.8311 23.7629 53.749 24.5258 53.749 25.3454ZM66.2065 24.4186L64.1429 24.7969C64.1555 23.5107 64.3323 22.3065 64.673 21.1842C65.0138 20.0494 65.5124 19.0595 66.1687 18.2147C66.8377 17.3572 67.6644 16.6889 68.6488 16.2097C69.646 15.718 70.7946 15.472 72.0946 15.472C73.1043 15.472 74.013 15.617 74.8209 15.9071C75.6413 16.1845 76.3418 16.6322 76.9224 17.25C77.5029 17.8553 77.9447 18.6433 78.2476 19.6143C78.5631 20.5853 78.721 21.7706 78.721 23.1702V36.3158H73.6849V23.1513C73.6849 22.1552 73.5461 21.3923 73.2685 20.8627C73.0033 20.3331 72.6184 19.9674 72.1135 19.7656C71.6087 19.5512 71.0155 19.4441 70.3339 19.4441C69.6397 19.4441 69.0339 19.5765 68.5164 19.8413C68.0115 20.0936 67.5823 20.4465 67.229 20.9005C66.8881 21.3544 66.6294 21.884 66.4528 22.4893C66.2886 23.082 66.2065 23.7251 66.2065 24.4186ZM82.3181 26.2912V25.8939C82.3181 24.3933 82.5327 23.0126 82.9619 21.7517C83.3909 20.4781 84.0157 19.3747 84.8361 18.4417C85.6565 17.5085 86.6599 16.7835 87.8464 16.2665C89.0329 15.7369 90.3834 15.472 91.898 15.472C93.4378 15.472 94.801 15.7369 95.9874 16.2665C97.1864 16.7835 98.1962 17.5085 99.0166 18.4417C99.8369 19.3747 100.462 20.4781 100.891 21.7517C101.32 23.0126 101.535 24.3933 101.535 25.8939V26.2912C101.535 27.7791 101.32 29.1598 100.891 30.4334C100.462 31.6944 99.8369 32.7978 99.0166 33.7434C98.1962 34.6765 97.1927 35.4016 96.0063 35.9186C94.8199 36.4357 93.463 36.6941 91.9358 36.6941C90.4212 36.6941 89.0644 36.4357 87.8653 35.9186C86.6662 35.4016 85.6565 34.6765 84.8361 33.7434C84.0157 32.7978 83.3909 31.6944 82.9619 30.4334C82.5327 29.1598 82.3181 27.7791 82.3181 26.2912ZM87.3163 25.8939V26.2912C87.3163 27.1864 87.4046 28.0249 87.5813 28.8068C87.7581 29.5886 88.0294 30.2758 88.3954 30.8684C88.7615 31.4611 89.2347 31.9277 89.8154 32.2681C90.4086 32.596 91.1154 32.7599 91.9358 32.7599C92.7436 32.7599 93.4378 32.596 94.0185 32.2681C94.599 31.9277 95.0723 31.4611 95.4383 30.8684C95.817 30.2758 96.0947 29.5886 96.2713 28.8068C96.4481 28.0249 96.5364 27.1864 96.5364 26.2912V25.8939C96.5364 25.0113 96.4481 24.1854 96.2713 23.4162C96.0947 22.6343 95.817 21.9471 95.4383 21.3544C95.0723 20.7492 94.5927 20.2763 93.9994 19.9359C93.4189 19.5828 92.7183 19.4062 91.898 19.4062C91.0902 19.4062 90.396 19.5828 89.8154 19.9359C89.2347 20.2763 88.7615 20.7492 88.3954 21.3544C88.0294 21.9471 87.7581 22.6343 87.5813 23.4162C87.4046 24.1854 87.3163 25.0113 87.3163 25.8939ZM105.151 7.26318H110.168V31.7952L109.676 36.3158H105.151V7.26318ZM123.345 25.875V26.2722C123.345 27.7979 123.174 29.1977 122.834 30.4713C122.505 31.7449 122.007 32.8481 121.338 33.7812C120.669 34.7018 119.836 35.4205 118.839 35.9375C117.854 36.442 116.7 36.6941 115.374 36.6941C114.112 36.6941 113.014 36.4482 112.08 35.9564C111.159 35.4647 110.382 34.7712 109.751 33.8759C109.12 32.968 108.615 31.9025 108.237 30.6794C107.858 29.4435 107.574 28.0943 107.385 26.6316V25.5535C107.574 24.0781 107.858 22.7289 108.237 21.5058C108.615 20.2826 109.12 19.2171 109.751 18.3092C110.382 17.4013 111.159 16.7015 112.08 16.2097C113.001 15.718 114.087 15.472 115.336 15.472C116.674 15.472 117.842 15.7306 118.839 16.2476C119.849 16.7519 120.682 17.4707 121.338 18.4038C122.007 19.3243 122.505 20.4214 122.834 21.695C123.174 22.9558 123.345 24.3493 123.345 25.875ZM118.328 26.2722V25.875C118.328 25.0049 118.258 24.1854 118.119 23.4162C117.981 22.6343 117.753 21.9471 117.438 21.3544C117.122 20.7618 116.693 20.2952 116.15 19.9548C115.608 19.6143 114.926 19.4441 114.106 19.4441C113.323 19.4441 112.654 19.5765 112.099 19.8413C111.556 20.1061 111.102 20.4718 110.736 20.9384C110.382 21.4049 110.105 21.9534 109.903 22.5838C109.713 23.2144 109.587 23.8953 109.524 24.6267V27.5773C109.612 28.5482 109.821 29.4247 110.149 30.2064C110.477 30.9756 110.963 31.5873 111.607 32.0412C112.263 32.4952 113.109 32.722 114.144 32.722C114.951 32.722 115.627 32.5644 116.169 32.2492C116.712 31.9214 117.141 31.4674 117.457 30.8873C117.772 30.2947 117.993 29.6074 118.119 28.8257C118.258 28.0439 118.328 27.1927 118.328 26.2722ZM132.281 15.8504V36.3158H127.264V15.8504H132.281ZM126.923 10.4976C126.923 9.75359 127.175 9.13572 127.68 8.64393C128.198 8.15217 128.892 7.90628 129.763 7.90628C130.633 7.90628 131.321 8.15217 131.827 8.64393C132.344 9.13572 132.603 9.75359 132.603 10.4976C132.603 11.2289 132.344 11.8405 131.827 12.3323C131.321 12.8241 130.633 13.07 129.763 13.07C128.892 13.07 128.198 12.8241 127.68 12.3323C127.175 11.8405 126.923 11.2289 126.923 10.4976ZM142.353 7.26318V36.3158H137.336V7.26318H142.353ZM156.326 36.6941C154.772 36.6941 153.378 36.442 152.141 35.9375C150.905 35.4331 149.85 34.7333 148.979 33.838C148.121 32.9301 147.459 31.8772 146.991 30.6794C146.538 29.4688 146.31 28.1699 146.31 26.7829V26.0263C146.31 24.4501 146.538 23.0189 146.991 21.7327C147.446 20.434 148.09 19.318 148.922 18.3849C149.756 17.4518 150.753 16.733 151.914 16.2286C153.075 15.7243 154.357 15.472 155.757 15.472C157.209 15.472 158.49 15.718 159.601 16.2097C160.711 16.6889 161.639 17.3699 162.384 18.2525C163.128 19.1352 163.69 20.1944 164.068 21.4301C164.448 22.6532 164.637 24.0088 164.637 25.4967V27.5963H148.582V24.1538H159.714V23.7755C159.689 22.9811 159.538 22.256 159.26 21.6004C158.982 20.9321 158.553 20.4025 157.972 20.0115C157.392 19.608 156.641 19.4062 155.72 19.4062C154.975 19.4062 154.325 19.5702 153.769 19.8981C153.226 20.2133 152.772 20.6672 152.406 21.2599C152.053 21.84 151.788 22.5335 151.611 23.3404C151.434 24.1475 151.346 25.0428 151.346 26.0263V26.7829C151.346 27.6403 151.46 28.4348 151.687 29.1662C151.926 29.8975 152.274 30.5343 152.728 31.0765C153.195 31.6061 153.751 32.0222 154.394 32.3248C155.051 32.6149 155.795 32.7599 156.629 32.7599C157.675 32.7599 158.622 32.5581 159.468 32.1546C160.327 31.7386 161.071 31.1269 161.702 30.32L164.22 32.9301C163.791 33.5607 163.21 34.1659 162.479 34.7459C161.759 35.326 160.888 35.7988 159.866 36.1645C158.844 36.5176 157.663 36.6941 156.326 36.6941Z" fill="white"/>
<path d="M22.4165 43.579C33.4582 43.579 42.4092 34.6364 42.4092 23.6053C42.4092 12.5741 33.4582 3.63159 22.4165 3.63159C11.3749 3.63159 2.42383 12.5741 2.42383 23.6053C2.42383 34.6364 11.3749 43.579 22.4165 43.579Z" stroke="#2D64F2" stroke-width="4"/>
<path d="M25.4453 18.1578H20.5986V37.5263H25.4453V18.1578Z" fill="#2D64F2"/>
<path d="M25.4453 15.7368H20.5986V10.8947H25.4453V15.7368Z" fill="#2D64F2"/>
</svg>
